<?xml version="1.0" standalone="no"?><!DOCTYPE svg PUBLIC "-//W3C//DTD SVG 1.1//EN" "http://www.w3.org/Graphics/SVG/1.1/DTD/svg11.dtd"><svg t="1639660612788" class="icon" viewBox="0 0 1024 1024" version="1.1" xmlns="http://www.w3.org/2000/svg" p-id="6301" width="32" height="32" xmlns:xlink="http://www.w3.org/1999/xlink"><defs><style type="text/css"></style></defs><path d="M512 512m-470.373984 0a470.373984 470.373984 0 1 0 940.747968 0 470.373984 470.373984 0 1 0-940.747968 0Z" fill="#A3D9FF" p-id="6302"></path><path d="M592.055154 294.166894m-79.08943 0a79.089431 79.089431 0 1 0 158.178861 0 79.089431 79.089431 0 1 0-158.178861 0Z" fill="#FFED7F" p-id="6303"></path><path d="M592.055154 389.906732c-52.794276 0-95.739837-42.949724-95.739837-95.739838s42.949724-95.739837 95.739837-95.739837 95.739837 42.949724 95.739838 95.739837-42.945561 95.739837-95.739838 95.739838z m0-158.178862c-34.428878 0-62.443187 28.010146-62.443187 62.439024s28.010146 62.439024 62.443187 62.439025 62.439024-28.010146 62.439025-62.439025-28.005984-62.439024-62.439025-62.439024z" fill="#6E6E96" p-id="6304"></path><path d="M107.153691 751.557724C189.090341 889.726959 339.714081 982.373984 512 982.373984c117.464455 0 224.86374-43.066276 307.291577-114.250927v-1.219642l-413.745951-413.741789-298.391935 298.396098zM602.461659 650.073496l216.829918 216.829919 1.128065 0.245593C919.643577 780.904065 982.373984 653.782374 982.373984 512c0-68.528911-14.664846-133.627837-41.018277-192.345496l-7.813203-0.661854-331.080845 331.080846z" fill="#C1F0CE" p-id="6305"></path><path d="M516.162602 1003.186992C247.61652 1003.186992 29.138211 784.708683 29.138211 516.162602 29.138211 247.61652 247.61652 29.138211 516.162602 29.138211c268.546081 0 487.02439 218.478309 487.02439 487.024391 0 268.546081-218.478309 487.02439-487.02439 487.02439z m0-940.747968C265.977756 62.439024 62.439024 265.977756 62.439024 516.162602s203.538732 453.723577 453.723578 453.723577 453.723577-203.538732 453.723577-453.723577S766.347447 62.439024 516.162602 62.439024z" fill="#6E6E96" p-id="6306"></path><path d="M516.162602 1003.186992c-86.086764 0-170.695805-22.773593-244.681887-65.85652a490.017301 490.017301 0 0 1-174.483772-173.118439 16.637919 16.637919 0 0 1 2.547512-20.263545l298.391935-298.396098a16.650407 16.650407 0 0 1 23.547838 0l413.745951 413.741789a16.654569 16.654569 0 0 1 4.878569 11.771837v1.219643a16.646244 16.646244 0 0 1-5.769366 12.600195A486.924488 486.924488 0 0 1 516.162602 1003.186992z m-383.79187-244.973268C215.15239 889.110894 361.014114 969.886179 516.162602 969.886179c103.145106 0 203.068358-35.13652 283.277528-99.290537l-389.731902-389.723577L132.370732 758.213724z" fill="#6E6E96" p-id="6307"></path><path d="M824.582244 887.957854a16.650407 16.650407 0 0 1-3.525724-0.378797l-1.128065-0.245594a16.617106 16.617106 0 0 1-8.246114-4.499772l-216.829918-216.829919a16.650407 16.650407 0 1 1 23.543675-23.543674l206.331837 206.331837A453.698602 453.698602 0 0 0 969.886179 516.162602c0-58.596943-10.94348-115.387317-32.555707-169.080716l-252.107968 252.103805a16.650407 16.650407 0 1 1-23.543675-23.543675l264.258602-264.262764a16.633756 16.633756 0 0 1 13.178797-4.81613l7.813203 0.661854a16.658732 16.658732 0 0 1 13.786536 9.773788C988.892618 379.80826 1003.186992 446.813659 1003.186992 516.162602a487.053528 487.053528 0 0 1-167.682081 367.711739 16.625431 16.625431 0 0 1-10.922667 4.083513z" fill="#6E6E96" p-id="6308"></path><path d="M512 37.463415c-36.16052 0-71.363642 4.091837-105.180618 11.817626A445.539902 445.539902 0 0 1 489.105691 41.626016C733.941593 41.626016 932.422764 240.107187 932.422764 484.943089S733.941593 928.260163 489.105691 928.260163 45.788618 729.778992 45.788618 484.943089c0-28.118374 2.647415-55.61652 7.655024-82.286309A471.789268 471.789268 0 0 0 41.626016 507.837398c0 259.779642 210.594341 470.373984 470.373984 470.373984s470.373984-210.594341 470.373984-470.373984S771.779642 37.463415 512 37.463415z" fill="#6E6E96" opacity=".15" p-id="6309"></path><path d="M400.217496 466.819122l321.735805 395.409691 41.717593-29.221463z" fill="#6E6E96" opacity=".15" p-id="6310"></path></svg>